<mxfile host="app.diagrams.net" modified="2022-07-15T11:51:51.951Z" agent="5.0 (Windows NT 10.0; Win64; x64) AppleWebKit/537.36 (KHTML, like Gecko) Chrome/103.0.0.0 Safari/537.36" etag="5UD2N96QDgP-nHC-tfHp" version="20.1.1" type="github">
  <diagram id="hY7Dvt7ZS4fLytwrdMHM" name="Page-1">
    <mxGraphModel dx="1888" dy="547" grid="1" gridSize="10" guides="1" tooltips="1" connect="1" arrows="1" fold="1" page="1" pageScale="1" pageWidth="850" pageHeight="1100" math="0" shadow="0">
      <root>
        <mxCell id="0" />
        <mxCell id="1" parent="0" />
        <mxCell id="tcf9JJ-WwojiPPdgTiES-23" value="" style="edgeStyle=orthogonalEdgeStyle;rounded=0;orthogonalLoop=1;jettySize=auto;html=1;" edge="1" parent="1" source="tcf9JJ-WwojiPPdgTiES-9" target="tcf9JJ-WwojiPPdgTiES-22">
          <mxGeometry relative="1" as="geometry">
            <Array as="points">
              <mxPoint x="760" y="190" />
              <mxPoint x="760" y="190" />
            </Array>
          </mxGeometry>
        </mxCell>
        <mxCell id="tcf9JJ-WwojiPPdgTiES-31" style="edgeStyle=orthogonalEdgeStyle;rounded=0;orthogonalLoop=1;jettySize=auto;html=1;exitX=0.25;exitY=0;exitDx=0;exitDy=0;entryX=1;entryY=0.25;entryDx=0;entryDy=0;" edge="1" parent="1" source="tcf9JJ-WwojiPPdgTiES-9" target="tcf9JJ-WwojiPPdgTiES-17">
          <mxGeometry relative="1" as="geometry">
            <Array as="points">
              <mxPoint x="653" y="85" />
            </Array>
          </mxGeometry>
        </mxCell>
        <mxCell id="tcf9JJ-WwojiPPdgTiES-40" style="edgeStyle=orthogonalEdgeStyle;rounded=0;orthogonalLoop=1;jettySize=auto;html=1;exitX=0;exitY=0;exitDx=0;exitDy=0;entryX=1;entryY=0.25;entryDx=0;entryDy=0;" edge="1" parent="1" source="tcf9JJ-WwojiPPdgTiES-9" target="tcf9JJ-WwojiPPdgTiES-18">
          <mxGeometry relative="1" as="geometry" />
        </mxCell>
        <mxCell id="tcf9JJ-WwojiPPdgTiES-51" style="edgeStyle=orthogonalEdgeStyle;rounded=0;orthogonalLoop=1;jettySize=auto;html=1;exitX=0.25;exitY=1;exitDx=0;exitDy=0;entryX=1;entryY=0.75;entryDx=0;entryDy=0;" edge="1" parent="1" source="tcf9JJ-WwojiPPdgTiES-9" target="tcf9JJ-WwojiPPdgTiES-19">
          <mxGeometry relative="1" as="geometry" />
        </mxCell>
        <mxCell id="tcf9JJ-WwojiPPdgTiES-66" style="edgeStyle=orthogonalEdgeStyle;rounded=0;orthogonalLoop=1;jettySize=auto;html=1;entryX=1;entryY=0.5;entryDx=0;entryDy=0;" edge="1" parent="1" source="tcf9JJ-WwojiPPdgTiES-9" target="tcf9JJ-WwojiPPdgTiES-65">
          <mxGeometry relative="1" as="geometry">
            <Array as="points">
              <mxPoint x="680" y="520" />
            </Array>
          </mxGeometry>
        </mxCell>
        <mxCell id="tcf9JJ-WwojiPPdgTiES-88" style="edgeStyle=orthogonalEdgeStyle;rounded=0;orthogonalLoop=1;jettySize=auto;html=1;fontSize=9;entryX=1;entryY=0.5;entryDx=0;entryDy=0;" edge="1" parent="1" source="tcf9JJ-WwojiPPdgTiES-9" target="tcf9JJ-WwojiPPdgTiES-90">
          <mxGeometry relative="1" as="geometry">
            <mxPoint x="510" y="711.6000366210938" as="targetPoint" />
            <Array as="points">
              <mxPoint x="760" y="720" />
              <mxPoint x="485" y="720" />
            </Array>
          </mxGeometry>
        </mxCell>
        <mxCell id="tcf9JJ-WwojiPPdgTiES-9" value="ADMIN/ MANAGER" style="rounded=0;whiteSpace=wrap;html=1;" vertex="1" parent="1">
          <mxGeometry x="610" y="230" width="170" height="60" as="geometry" />
        </mxCell>
        <mxCell id="tcf9JJ-WwojiPPdgTiES-25" style="edgeStyle=orthogonalEdgeStyle;rounded=0;orthogonalLoop=1;jettySize=auto;html=1;entryX=0;entryY=0.5;entryDx=0;entryDy=0;" edge="1" parent="1" source="tcf9JJ-WwojiPPdgTiES-16" target="tcf9JJ-WwojiPPdgTiES-17">
          <mxGeometry relative="1" as="geometry">
            <Array as="points">
              <mxPoint x="90" y="100" />
            </Array>
          </mxGeometry>
        </mxCell>
        <mxCell id="tcf9JJ-WwojiPPdgTiES-36" style="edgeStyle=orthogonalEdgeStyle;rounded=0;orthogonalLoop=1;jettySize=auto;html=1;exitX=0.75;exitY=0;exitDx=0;exitDy=0;entryX=0.447;entryY=-0.01;entryDx=0;entryDy=0;entryPerimeter=0;" edge="1" parent="1" source="tcf9JJ-WwojiPPdgTiES-16" target="tcf9JJ-WwojiPPdgTiES-18">
          <mxGeometry relative="1" as="geometry">
            <mxPoint x="350" y="160" as="targetPoint" />
            <Array as="points">
              <mxPoint x="110" y="140" />
              <mxPoint x="384" y="140" />
            </Array>
          </mxGeometry>
        </mxCell>
        <mxCell id="tcf9JJ-WwojiPPdgTiES-42" style="edgeStyle=orthogonalEdgeStyle;rounded=0;orthogonalLoop=1;jettySize=auto;html=1;exitX=1;exitY=0;exitDx=0;exitDy=0;entryX=0.067;entryY=0.003;entryDx=0;entryDy=0;entryPerimeter=0;" edge="1" parent="1" source="tcf9JJ-WwojiPPdgTiES-16" target="tcf9JJ-WwojiPPdgTiES-18">
          <mxGeometry relative="1" as="geometry">
            <Array as="points">
              <mxPoint x="120" y="210" />
              <mxPoint x="120" y="150" />
              <mxPoint x="338" y="150" />
            </Array>
          </mxGeometry>
        </mxCell>
        <mxCell id="tcf9JJ-WwojiPPdgTiES-44" style="edgeStyle=orthogonalEdgeStyle;rounded=0;orthogonalLoop=1;jettySize=auto;html=1;exitX=0.833;exitY=1;exitDx=0;exitDy=0;entryX=0.25;entryY=0;entryDx=0;entryDy=0;exitPerimeter=0;" edge="1" parent="1" source="tcf9JJ-WwojiPPdgTiES-16" target="tcf9JJ-WwojiPPdgTiES-19">
          <mxGeometry relative="1" as="geometry">
            <mxPoint x="280" y="290" as="targetPoint" />
            <Array as="points">
              <mxPoint x="120" y="280" />
              <mxPoint x="360" y="280" />
            </Array>
          </mxGeometry>
        </mxCell>
        <mxCell id="tcf9JJ-WwojiPPdgTiES-61" style="edgeStyle=orthogonalEdgeStyle;rounded=0;orthogonalLoop=1;jettySize=auto;html=1;entryX=0;entryY=0.5;entryDx=0;entryDy=0;" edge="1" parent="1" source="tcf9JJ-WwojiPPdgTiES-16" target="tcf9JJ-WwojiPPdgTiES-21">
          <mxGeometry relative="1" as="geometry">
            <Array as="points">
              <mxPoint x="80" y="400" />
            </Array>
          </mxGeometry>
        </mxCell>
        <mxCell id="tcf9JJ-WwojiPPdgTiES-71" style="edgeStyle=orthogonalEdgeStyle;rounded=0;orthogonalLoop=1;jettySize=auto;html=1;exitX=0.25;exitY=1;exitDx=0;exitDy=0;fontSize=9;" edge="1" parent="1" source="tcf9JJ-WwojiPPdgTiES-16">
          <mxGeometry relative="1" as="geometry">
            <mxPoint x="90" y="530" as="targetPoint" />
            <Array as="points">
              <mxPoint x="40" y="270" />
              <mxPoint x="40" y="530" />
            </Array>
          </mxGeometry>
        </mxCell>
        <mxCell id="tcf9JJ-WwojiPPdgTiES-89" style="edgeStyle=orthogonalEdgeStyle;rounded=0;orthogonalLoop=1;jettySize=auto;html=1;fontSize=9;entryX=0;entryY=0.5;entryDx=0;entryDy=0;" edge="1" parent="1" source="tcf9JJ-WwojiPPdgTiES-16" target="tcf9JJ-WwojiPPdgTiES-90">
          <mxGeometry relative="1" as="geometry">
            <mxPoint x="360" y="732.3999633789062" as="targetPoint" />
            <Array as="points">
              <mxPoint x="-20" y="240" />
              <mxPoint x="-20" y="720" />
            </Array>
          </mxGeometry>
        </mxCell>
        <mxCell id="tcf9JJ-WwojiPPdgTiES-16" value="EMPLOYEE" style="rounded=0;whiteSpace=wrap;html=1;" vertex="1" parent="1">
          <mxGeometry x="20" y="210" width="120" height="60" as="geometry" />
        </mxCell>
        <mxCell id="tcf9JJ-WwojiPPdgTiES-27" style="edgeStyle=orthogonalEdgeStyle;rounded=0;orthogonalLoop=1;jettySize=auto;html=1;" edge="1" parent="1" source="tcf9JJ-WwojiPPdgTiES-17" target="tcf9JJ-WwojiPPdgTiES-9">
          <mxGeometry relative="1" as="geometry">
            <Array as="points">
              <mxPoint x="640" y="100" />
            </Array>
          </mxGeometry>
        </mxCell>
        <mxCell id="tcf9JJ-WwojiPPdgTiES-34" style="edgeStyle=orthogonalEdgeStyle;rounded=0;orthogonalLoop=1;jettySize=auto;html=1;" edge="1" parent="1" source="tcf9JJ-WwojiPPdgTiES-17" target="tcf9JJ-WwojiPPdgTiES-16">
          <mxGeometry relative="1" as="geometry">
            <Array as="points">
              <mxPoint x="80" y="80" />
            </Array>
          </mxGeometry>
        </mxCell>
        <mxCell id="tcf9JJ-WwojiPPdgTiES-17" value="MANAGE EMPLOYEE INFORMATION" style="rounded=1;whiteSpace=wrap;html=1;" vertex="1" parent="1">
          <mxGeometry x="330" y="70" width="120" height="60" as="geometry" />
        </mxCell>
        <mxCell id="tcf9JJ-WwojiPPdgTiES-38" style="edgeStyle=orthogonalEdgeStyle;rounded=0;orthogonalLoop=1;jettySize=auto;html=1;exitX=0.75;exitY=0;exitDx=0;exitDy=0;" edge="1" parent="1" source="tcf9JJ-WwojiPPdgTiES-18">
          <mxGeometry relative="1" as="geometry">
            <mxPoint x="630" y="230" as="targetPoint" />
            <Array as="points">
              <mxPoint x="420" y="150" />
              <mxPoint x="630" y="150" />
            </Array>
          </mxGeometry>
        </mxCell>
        <mxCell id="tcf9JJ-WwojiPPdgTiES-18" value="CHECK TIME IN AND TIME OUT" style="rounded=1;whiteSpace=wrap;html=1;" vertex="1" parent="1">
          <mxGeometry x="330" y="170" width="120" height="60" as="geometry" />
        </mxCell>
        <mxCell id="tcf9JJ-WwojiPPdgTiES-46" style="edgeStyle=orthogonalEdgeStyle;rounded=0;orthogonalLoop=1;jettySize=auto;html=1;entryX=0.151;entryY=0.99;entryDx=0;entryDy=0;entryPerimeter=0;" edge="1" parent="1" source="tcf9JJ-WwojiPPdgTiES-19" target="tcf9JJ-WwojiPPdgTiES-9">
          <mxGeometry relative="1" as="geometry" />
        </mxCell>
        <mxCell id="tcf9JJ-WwojiPPdgTiES-53" style="edgeStyle=orthogonalEdgeStyle;rounded=0;orthogonalLoop=1;jettySize=auto;html=1;entryX=0.75;entryY=1;entryDx=0;entryDy=0;" edge="1" parent="1" source="tcf9JJ-WwojiPPdgTiES-19" target="tcf9JJ-WwojiPPdgTiES-16">
          <mxGeometry relative="1" as="geometry" />
        </mxCell>
        <mxCell id="tcf9JJ-WwojiPPdgTiES-19" value="MANAGE EMPLOYEE LEAVE" style="rounded=1;whiteSpace=wrap;html=1;" vertex="1" parent="1">
          <mxGeometry x="330" y="290" width="120" height="60" as="geometry" />
        </mxCell>
        <mxCell id="tcf9JJ-WwojiPPdgTiES-55" style="edgeStyle=orthogonalEdgeStyle;rounded=0;orthogonalLoop=1;jettySize=auto;html=1;entryX=0.75;entryY=1;entryDx=0;entryDy=0;" edge="1" parent="1" source="tcf9JJ-WwojiPPdgTiES-20" target="tcf9JJ-WwojiPPdgTiES-9">
          <mxGeometry relative="1" as="geometry">
            <Array as="points">
              <mxPoint x="738" y="640" />
            </Array>
          </mxGeometry>
        </mxCell>
        <mxCell id="tcf9JJ-WwojiPPdgTiES-56" style="edgeStyle=orthogonalEdgeStyle;rounded=0;orthogonalLoop=1;jettySize=auto;html=1;entryX=0;entryY=1;entryDx=0;entryDy=0;" edge="1" parent="1" source="tcf9JJ-WwojiPPdgTiES-20" target="tcf9JJ-WwojiPPdgTiES-16">
          <mxGeometry relative="1" as="geometry">
            <mxPoint x="50" y="270" as="targetPoint" />
            <Array as="points">
              <mxPoint x="20" y="640" />
            </Array>
          </mxGeometry>
        </mxCell>
        <mxCell id="tcf9JJ-WwojiPPdgTiES-20" value="MONITOR WORKING DAYS AND HOURS" style="rounded=1;whiteSpace=wrap;html=1;" vertex="1" parent="1">
          <mxGeometry x="340" y="610" width="120" height="60" as="geometry" />
        </mxCell>
        <mxCell id="tcf9JJ-WwojiPPdgTiES-59" value="" style="edgeStyle=orthogonalEdgeStyle;rounded=0;orthogonalLoop=1;jettySize=auto;html=1;" edge="1" parent="1" source="tcf9JJ-WwojiPPdgTiES-21" target="tcf9JJ-WwojiPPdgTiES-58">
          <mxGeometry relative="1" as="geometry" />
        </mxCell>
        <mxCell id="tcf9JJ-WwojiPPdgTiES-21" value="EMPLOYEE TRAINING" style="rounded=1;whiteSpace=wrap;html=1;" vertex="1" parent="1">
          <mxGeometry x="330" y="370" width="120" height="60" as="geometry" />
        </mxCell>
        <mxCell id="tcf9JJ-WwojiPPdgTiES-24" style="edgeStyle=orthogonalEdgeStyle;rounded=0;orthogonalLoop=1;jettySize=auto;html=1;" edge="1" parent="1" target="tcf9JJ-WwojiPPdgTiES-16">
          <mxGeometry relative="1" as="geometry">
            <mxPoint x="60" y="200" as="targetPoint" />
            <mxPoint x="790" y="80" as="sourcePoint" />
            <Array as="points">
              <mxPoint x="790" y="30" />
              <mxPoint x="70" y="30" />
            </Array>
          </mxGeometry>
        </mxCell>
        <mxCell id="tcf9JJ-WwojiPPdgTiES-22" value="CREATE EMPLOYEE LOGIN AND BRANCH" style="whiteSpace=wrap;html=1;rounded=0;" vertex="1" parent="1">
          <mxGeometry x="720" y="85" width="120" height="60" as="geometry" />
        </mxCell>
        <mxCell id="tcf9JJ-WwojiPPdgTiES-26" value="Employees Information" style="text;html=1;align=center;verticalAlign=middle;resizable=0;points=[];autosize=1;strokeColor=none;fillColor=none;" vertex="1" parent="1">
          <mxGeometry x="125" y="75" width="150" height="30" as="geometry" />
        </mxCell>
        <mxCell id="tcf9JJ-WwojiPPdgTiES-28" value="Employee Information" style="text;html=1;align=center;verticalAlign=middle;resizable=0;points=[];autosize=1;strokeColor=none;fillColor=none;" vertex="1" parent="1">
          <mxGeometry x="460" y="75" width="140" height="30" as="geometry" />
        </mxCell>
        <mxCell id="tcf9JJ-WwojiPPdgTiES-32" value="Confirmed information" style="text;html=1;align=center;verticalAlign=middle;resizable=0;points=[];autosize=1;strokeColor=none;fillColor=none;" vertex="1" parent="1">
          <mxGeometry x="510" y="55" width="140" height="30" as="geometry" />
        </mxCell>
        <mxCell id="tcf9JJ-WwojiPPdgTiES-33" value="Login Credentials" style="text;html=1;align=center;verticalAlign=middle;resizable=0;points=[];autosize=1;strokeColor=none;fillColor=none;" vertex="1" parent="1">
          <mxGeometry x="330" y="5" width="120" height="30" as="geometry" />
        </mxCell>
        <mxCell id="tcf9JJ-WwojiPPdgTiES-35" value="Employees Information" style="text;html=1;align=center;verticalAlign=middle;resizable=0;points=[];autosize=1;strokeColor=none;fillColor=none;" vertex="1" parent="1">
          <mxGeometry x="135" y="55" width="150" height="30" as="geometry" />
        </mxCell>
        <mxCell id="tcf9JJ-WwojiPPdgTiES-37" value="Time- In/ Time Out Information" style="text;html=1;align=center;verticalAlign=middle;resizable=0;points=[];autosize=1;strokeColor=none;fillColor=none;" vertex="1" parent="1">
          <mxGeometry x="95" y="115" width="190" height="30" as="geometry" />
        </mxCell>
        <mxCell id="tcf9JJ-WwojiPPdgTiES-39" value="Tim-In/ Time Out Information" style="text;html=1;align=center;verticalAlign=middle;resizable=0;points=[];autosize=1;strokeColor=none;fillColor=none;" vertex="1" parent="1">
          <mxGeometry x="450" y="125" width="180" height="30" as="geometry" />
        </mxCell>
        <mxCell id="tcf9JJ-WwojiPPdgTiES-41" value="Update Attendance&lt;span style=&quot;white-space: pre;&quot;&gt;	&lt;/span&gt;" style="text;html=1;align=center;verticalAlign=middle;resizable=0;points=[];autosize=1;strokeColor=none;fillColor=none;" vertex="1" parent="1">
          <mxGeometry x="465" y="155" width="130" height="30" as="geometry" />
        </mxCell>
        <mxCell id="tcf9JJ-WwojiPPdgTiES-43" value="Performance report" style="text;html=1;align=center;verticalAlign=middle;resizable=0;points=[];autosize=1;strokeColor=none;fillColor=none;" vertex="1" parent="1">
          <mxGeometry x="165" y="145" width="130" height="30" as="geometry" />
        </mxCell>
        <mxCell id="tcf9JJ-WwojiPPdgTiES-45" value="Leave Information" style="text;html=1;align=center;verticalAlign=middle;resizable=0;points=[];autosize=1;strokeColor=none;fillColor=none;" vertex="1" parent="1">
          <mxGeometry x="130" y="270" width="120" height="30" as="geometry" />
        </mxCell>
        <mxCell id="tcf9JJ-WwojiPPdgTiES-47" value="Leave information" style="text;html=1;align=center;verticalAlign=middle;resizable=0;points=[];autosize=1;strokeColor=none;fillColor=none;" vertex="1" parent="1">
          <mxGeometry x="470" y="290" width="120" height="30" as="geometry" />
        </mxCell>
        <mxCell id="tcf9JJ-WwojiPPdgTiES-52" value="Record Leave" style="text;html=1;align=center;verticalAlign=middle;resizable=0;points=[];autosize=1;strokeColor=none;fillColor=none;" vertex="1" parent="1">
          <mxGeometry x="530" y="315" width="100" height="30" as="geometry" />
        </mxCell>
        <mxCell id="tcf9JJ-WwojiPPdgTiES-54" value="Leave Report" style="text;html=1;align=center;verticalAlign=middle;resizable=0;points=[];autosize=1;strokeColor=none;fillColor=none;" vertex="1" parent="1">
          <mxGeometry x="160" y="315" width="100" height="30" as="geometry" />
        </mxCell>
        <mxCell id="tcf9JJ-WwojiPPdgTiES-57" value="Working Days and Hours report" style="text;html=1;align=center;verticalAlign=middle;resizable=0;points=[];autosize=1;strokeColor=none;fillColor=none;" vertex="1" parent="1">
          <mxGeometry x="90" y="610" width="190" height="30" as="geometry" />
        </mxCell>
        <mxCell id="tcf9JJ-WwojiPPdgTiES-60" style="edgeStyle=orthogonalEdgeStyle;rounded=0;orthogonalLoop=1;jettySize=auto;html=1;entryX=0.58;entryY=1.03;entryDx=0;entryDy=0;entryPerimeter=0;" edge="1" parent="1" source="tcf9JJ-WwojiPPdgTiES-58" target="tcf9JJ-WwojiPPdgTiES-21">
          <mxGeometry relative="1" as="geometry">
            <mxPoint x="400" y="440" as="targetPoint" />
            <Array as="points">
              <mxPoint x="590" y="450" />
              <mxPoint x="400" y="450" />
            </Array>
          </mxGeometry>
        </mxCell>
        <mxCell id="tcf9JJ-WwojiPPdgTiES-63" style="edgeStyle=orthogonalEdgeStyle;rounded=0;orthogonalLoop=1;jettySize=auto;html=1;exitX=1;exitY=0.5;exitDx=0;exitDy=0;entryX=0.362;entryY=1.07;entryDx=0;entryDy=0;entryPerimeter=0;" edge="1" parent="1" source="tcf9JJ-WwojiPPdgTiES-58" target="tcf9JJ-WwojiPPdgTiES-9">
          <mxGeometry relative="1" as="geometry" />
        </mxCell>
        <mxCell id="tcf9JJ-WwojiPPdgTiES-58" value="QUIZ PASS?" style="rhombus;whiteSpace=wrap;html=1;rounded=1;" vertex="1" parent="1">
          <mxGeometry x="550" y="360" width="80" height="80" as="geometry" />
        </mxCell>
        <mxCell id="tcf9JJ-WwojiPPdgTiES-62" value="Course Videos and Certification" style="text;html=1;align=center;verticalAlign=middle;resizable=0;points=[];autosize=1;strokeColor=none;fillColor=none;" vertex="1" parent="1">
          <mxGeometry x="105" y="370" width="190" height="30" as="geometry" />
        </mxCell>
        <mxCell id="tcf9JJ-WwojiPPdgTiES-64" value="No" style="text;html=1;align=center;verticalAlign=middle;resizable=0;points=[];autosize=1;strokeColor=none;fillColor=none;" vertex="1" parent="1">
          <mxGeometry x="470" y="425" width="40" height="30" as="geometry" />
        </mxCell>
        <mxCell id="tcf9JJ-WwojiPPdgTiES-73" value="" style="edgeStyle=orthogonalEdgeStyle;rounded=0;orthogonalLoop=1;jettySize=auto;html=1;fontSize=9;" edge="1" parent="1" source="tcf9JJ-WwojiPPdgTiES-65" target="tcf9JJ-WwojiPPdgTiES-72">
          <mxGeometry relative="1" as="geometry" />
        </mxCell>
        <mxCell id="tcf9JJ-WwojiPPdgTiES-86" style="edgeStyle=orthogonalEdgeStyle;rounded=0;orthogonalLoop=1;jettySize=auto;html=1;exitX=0.75;exitY=1;exitDx=0;exitDy=0;entryX=0.584;entryY=1.03;entryDx=0;entryDy=0;entryPerimeter=0;fontSize=9;" edge="1" parent="1" source="tcf9JJ-WwojiPPdgTiES-65" target="tcf9JJ-WwojiPPdgTiES-9">
          <mxGeometry relative="1" as="geometry" />
        </mxCell>
        <mxCell id="tcf9JJ-WwojiPPdgTiES-65" value="PRODUCTION TASKS AND ASSETS" style="rounded=1;whiteSpace=wrap;html=1;" vertex="1" parent="1">
          <mxGeometry x="340" y="490" width="120" height="60" as="geometry" />
        </mxCell>
        <mxCell id="tcf9JJ-WwojiPPdgTiES-78" style="edgeStyle=orthogonalEdgeStyle;rounded=0;orthogonalLoop=1;jettySize=auto;html=1;exitX=0;exitY=0.5;exitDx=0;exitDy=0;entryX=1;entryY=0.5;entryDx=0;entryDy=0;fontSize=9;" edge="1" parent="1" source="tcf9JJ-WwojiPPdgTiES-72" target="tcf9JJ-WwojiPPdgTiES-77">
          <mxGeometry relative="1" as="geometry" />
        </mxCell>
        <mxCell id="tcf9JJ-WwojiPPdgTiES-80" style="edgeStyle=orthogonalEdgeStyle;rounded=0;orthogonalLoop=1;jettySize=auto;html=1;entryX=0.333;entryY=1;entryDx=0;entryDy=0;entryPerimeter=0;fontSize=9;" edge="1" parent="1" source="tcf9JJ-WwojiPPdgTiES-72" target="tcf9JJ-WwojiPPdgTiES-16">
          <mxGeometry relative="1" as="geometry">
            <Array as="points">
              <mxPoint x="265" y="430" />
              <mxPoint x="60" y="430" />
            </Array>
          </mxGeometry>
        </mxCell>
        <mxCell id="tcf9JJ-WwojiPPdgTiES-72" value="Signed pre-requisite?" style="rhombus;whiteSpace=wrap;html=1;rounded=1;" vertex="1" parent="1">
          <mxGeometry x="225" y="480" width="80" height="80" as="geometry" />
        </mxCell>
        <mxCell id="tcf9JJ-WwojiPPdgTiES-82" style="edgeStyle=orthogonalEdgeStyle;rounded=0;orthogonalLoop=1;jettySize=auto;html=1;entryX=0.5;entryY=0;entryDx=0;entryDy=0;fontSize=9;" edge="1" parent="1" source="tcf9JJ-WwojiPPdgTiES-77" target="tcf9JJ-WwojiPPdgTiES-20">
          <mxGeometry relative="1" as="geometry">
            <Array as="points">
              <mxPoint x="149" y="580" />
              <mxPoint x="400" y="580" />
            </Array>
          </mxGeometry>
        </mxCell>
        <mxCell id="tcf9JJ-WwojiPPdgTiES-84" style="edgeStyle=orthogonalEdgeStyle;rounded=0;orthogonalLoop=1;jettySize=auto;html=1;exitX=1;exitY=0.75;exitDx=0;exitDy=0;entryX=0.563;entryY=1.017;entryDx=0;entryDy=0;entryPerimeter=0;fontSize=9;" edge="1" parent="1" source="tcf9JJ-WwojiPPdgTiES-77" target="tcf9JJ-WwojiPPdgTiES-65">
          <mxGeometry relative="1" as="geometry">
            <Array as="points">
              <mxPoint x="208" y="570" />
              <mxPoint x="408" y="570" />
            </Array>
          </mxGeometry>
        </mxCell>
        <mxCell id="tcf9JJ-WwojiPPdgTiES-77" value="Documents" style="swimlane;fontSize=9;" vertex="1" parent="1">
          <mxGeometry x="90" y="470" width="117.5" height="100" as="geometry" />
        </mxCell>
        <mxCell id="tcf9JJ-WwojiPPdgTiES-68" value="&lt;font style=&quot;font-size: 9px;&quot;&gt;Morning Walk Around&lt;/font&gt;" style="shape=document;whiteSpace=wrap;html=1;boundedLbl=1;" vertex="1" parent="tcf9JJ-WwojiPPdgTiES-77">
          <mxGeometry x="30" y="27.5" width="75" height="45" as="geometry" />
        </mxCell>
        <mxCell id="tcf9JJ-WwojiPPdgTiES-69" value="&lt;span style=&quot;font-size: 9px;&quot;&gt;pre-work hazards&lt;/span&gt;" style="shape=document;whiteSpace=wrap;html=1;boundedLbl=1;" vertex="1" parent="tcf9JJ-WwojiPPdgTiES-77">
          <mxGeometry x="10" y="50" width="75" height="40" as="geometry" />
        </mxCell>
        <mxCell id="tcf9JJ-WwojiPPdgTiES-79" value="yes" style="text;html=1;align=center;verticalAlign=middle;resizable=0;points=[];autosize=1;strokeColor=none;fillColor=none;fontSize=9;" vertex="1" parent="1">
          <mxGeometry x="200" y="500" width="40" height="20" as="geometry" />
        </mxCell>
        <mxCell id="tcf9JJ-WwojiPPdgTiES-81" value="No" style="text;html=1;align=center;verticalAlign=middle;resizable=0;points=[];autosize=1;strokeColor=none;fillColor=none;fontSize=9;" vertex="1" parent="1">
          <mxGeometry x="190" y="410" width="40" height="20" as="geometry" />
        </mxCell>
        <mxCell id="tcf9JJ-WwojiPPdgTiES-83" value="Employee clicks on &quot;START&quot;" style="text;html=1;align=center;verticalAlign=middle;resizable=0;points=[];autosize=1;strokeColor=none;fillColor=none;fontSize=9;" vertex="1" parent="1">
          <mxGeometry x="200" y="580" width="140" height="20" as="geometry" />
        </mxCell>
        <mxCell id="tcf9JJ-WwojiPPdgTiES-85" value="Request/ Return Assets Request" style="text;html=1;align=center;verticalAlign=middle;resizable=0;points=[];autosize=1;strokeColor=none;fillColor=none;fontSize=9;" vertex="1" parent="1">
          <mxGeometry x="245" y="550" width="150" height="20" as="geometry" />
        </mxCell>
        <mxCell id="tcf9JJ-WwojiPPdgTiES-87" value="Request/ Return Assets&amp;nbsp;" style="text;html=1;align=center;verticalAlign=middle;resizable=0;points=[];autosize=1;strokeColor=none;fillColor=none;fontSize=9;" vertex="1" parent="1">
          <mxGeometry x="550" y="550" width="120" height="20" as="geometry" />
        </mxCell>
        <mxCell id="tcf9JJ-WwojiPPdgTiES-90" value="LOGOUT" style="rounded=1;whiteSpace=wrap;html=1;" vertex="1" parent="1">
          <mxGeometry x="350" y="690" width="120" height="60" as="geometry" />
        </mxCell>
      </root>
    </mxGraphModel>
  </diagram>
</mxfile>
